<svg width="100" height="100" xmlns="http://www.w3.org/2000/svg" xmlns:xlink="http://www.w3.org/1999/xlink"><defs><path d="M100 0v100H0V0h100zM54.285 60.934a.781.781 0 00-.598.039c-.055.027-1.35.681-1.763 2.137-.302 1.063-.063 2.232.703 3.462.073.122.222.323.584.809 1.428 1.916 5.137 6.893 6.478 10.78-.51.662-.956 1.739-.956 2.76a4.413 4.413 0 004.012 4.396c-.776 3.592 1.397 7.209 4.976 8.168 2.653.711 5.369-.23 7.053-2.191l.035.001c1.108 0 2.19-.264 3.162-.759 1.46-.233 2.488-.563 3.086-.99.72-.517.791-1.374.211-2.573a6.96 6.96 0 00.524-2.386 6.958 6.958 0 00-.828-3.628c.731-.46 2.202.052 2.714-1.699.782-1.966-2.105-2.769-2.073-3.516a6.22 6.22 0 00-1.634-4.5 6.095 6.095 0 00-3.28-1.887 6.564 6.564 0 00-1.62-3.24 6.494 6.494 0 00-8.712-.826c-.116.087-.2.2-.253.324l-11.347-3.65a.784.784 0 00-.474-1.031zm-8.151.445a.776.776 0 00-1.06.28.788.788 0 00-.06.671l-11.647 4.065a.782.782 0 00-.292-.378 6.63 6.63 0 00-8.995 1.4 6.633 6.633 0 00-1.001 1.81 4.746 4.746 0 00-3.131 1.803 4.78 4.78 0 00-.992 2.594c-.36.294-.686.628-.973.998-.634.813-1.832 2.273-1.832 3.3 0 .787.38 1.848.92 2.846a3.826 3.826 0 00.696 5.1c-.026.276-.022.556.013.835a3.802 3.802 0 003.046 3.277l.002.012c.198.922-.133 2.314.754 2.538 1.203.302 2.763-.016 4.68-.954.461.115.942.161 1.43.135a.758.758 0 00.334-.096.787.787 0 00.158.085c.493.194 1.04.293 1.6.293.77 0 2.437.899 3.155.513.716-.384 1.043-1.686 1.406-2.694a6.605 6.605 0 005.149-1.167 6.673 6.673 0 001.669-8.973l.131.182c.194-3.084 3.891-9.688 5.306-12.216.371-.662.545-.974.62-1.139 1.338-2.773-.124-4.561-1.086-5.12zm-6.047 24.225l.058-.118c-.019.04-.038.08-.058.118l.058-.118z" id="a"/></defs><g fill="none" fill-rule="evenodd"><path d="M68.427 89.833a.656.656 0 01.36.352l.788 1.843a.66.66 0 01-.604.918.657.657 0 01-.603-.399l-.789-1.843a.66.66 0 01.848-.87zm-44.592-.532a.66.66 0 01.094.927l-1.262 1.555a.656.656 0 01-.924.095.66.66 0 01-.095-.927l1.263-1.555a.656.656 0 01.924-.095zm9.455-.442a.66.66 0 01.345.865l-.789 1.843a.657.657 0 11-1.207-.519l.788-1.843a.657.657 0 01.863-.346zM31.8 86.92c.33.15.478.54.329.871-.716 1.59-2.226 2.334-3.633 2.334-.47 0-.93-.083-1.344-.246a.66.66 0 01.48-1.227c1.095.432 2.682-.03 3.3-1.402a.657.657 0 01.868-.33zM49.768 18c17.594 0 31.907 14.353 31.907 31.994 0 7.076-2.255 13.778-6.523 19.388.22.448.375.921.465 1.406a5.131 5.131 0 012.756 1.586 5.225 5.225 0 011.372 3.78 5.208 5.208 0 01-1.185 3.101 5.237 5.237 0 01.994 3.32 5.243 5.243 0 01-1.699 3.656 5.243 5.243 0 01-3.903 1.375 5.8 5.8 0 01-4.26 1.864c-3.02 0-5.51-2.318-5.795-5.273a3.709 3.709 0 01-3.368-3.693c0-.126.008-.253.023-.38A31.654 31.654 0 0149.768 82a31.76 31.76 0 01-9.887-1.567 5.605 5.605 0 01-1.9 6.56 5.549 5.549 0 01-3.285 1.078c-.471 0-.94-.06-1.397-.177a.659.659 0 01.327-1.276 4.243 4.243 0 003.58-.689 4.286 4.286 0 001.072-5.762l-.012-.018a.658.658 0 01-.033-.063l.045.081a.663.663 0 01-.081-.182l-.007-.027a.594.594 0 01-.016-.147c0-2.514 2.475-7.259 4.632-11.111.221-.396.43-.769.467-.853l.012-.026c.668-1.376.138-2.136-.19-2.443l.05.04a.662.662 0 01-.104-.086 1.112 1.112 0 00-.146-.11.663.663 0 01-.225-.9.652.652 0 01.89-.236c.115.067.239.155.363.263.233.13 1.23.595 2.917.279.856-.325 1.8-.586 2.692-.626l.236-.005c.966 0 2.027.23 2.979.521l-.137-.024c1.794.351 2.914-.234 3.087-.332a2.95 2.95 0 01.593-.417.656.656 0 01.88.3.66.66 0 01-.295.88c-.022.011-.628.338-.806.988-.142.518.01 1.14.451 1.848.043.07.236.328.423.578 1.28 1.72 4.683 6.285 5.762 9.815l.129.423-.341.28c-.23.188-.65.956-.65 1.647a2.39 2.39 0 002.384 2.39c.475.002.94-.14 1.333-.407a.656.656 0 01.912.177.66.66 0 01-.177.914 3.674 3.674 0 01-1.089.503 4.518 4.518 0 004.486 4.072c2.485 0 4.507-2.028 4.507-4.52a.658.658 0 111.314 0c0 .943-.224 1.834-.622 2.623a3.92 3.92 0 002.077-.995 3.933 3.933 0 001.273-2.744 3.934 3.934 0 00-.65-2.354c-.27.196-.557.364-.859.503a.659.659 0 01-.554-1.194 3.89 3.89 0 00.988-.654 3.9 3.9 0 001.267-2.722 3.914 3.914 0 00-1.029-2.832 3.86 3.86 0 00-1.71-1.097 5.513 5.513 0 01-.516 1.96c.083.166.153.34.21.522.619 1.955-.458 4.047-2.4 4.666a.659.659 0 01-.397-1.255 2.4 2.4 0 001.545-3.012 2.393 2.393 0 00-1.39-1.502.66.66 0 01.49-1.222c.365.147.7.35.996.596.134-.464.183-.943.152-1.416l-.007-.022a.656.656 0 01-.01-.145 4.102 4.102 0 00-.48-1.541 1.02 1.02 0 01-.306-.162 1.097 1.097 0 01-.428-.814l.134.137A4.151 4.151 0 0068.9 67.81a4.122 4.122 0 00-1.179.619l-.007.005a.657.657 0 01-.047.032l.055-.037a.656.656 0 01-.104.064l-.022.01a.59.59 0 01-.066.025l-.033.01a.638.638 0 01-.16.022H67.3a.656.656 0 01-.065-.007l-.01-.003h-.01a.652.652 0 01-.035-.008l.055.011a.656.656 0 01-.117-.028l-.035-.014a.531.531 0 01-.069-.032L67 68.47l-3.78-2.193a.657.657 0 01-.278-.161l-.637-.371-.046-.04c-.013-.01-1.47-1.23-3.407-1.23a.658.658 0 01-.31-1.238c-2.173-1.534-2.683-1.593-4.944-1.577-1.394.01-3.554.91-3.576.919l-.01.003a.656.656 0 01-.503-.005c-.021-.01-2.127-.907-3.518-.917-2.383-.017-2.82.05-5.31 1.839.095 0 .193 0 .29.004a.658.658 0 01.634.682.65.65 0 01-.68.634c-1.606-.058-3.139.811-3.806 1.251a85.059 85.059 0 01-.287.205l-.026.013a1.88 1.88 0 00-.036.028l-.046.032-2.68 1.763a.655.655 0 01-.017.01l-1.451.955-.02.013a.656.656 0 01-.047.026l.067-.04a.665.665 0 01-.319.108h-.025l-.016.001-.053-.002a.656.656 0 01-.036-.004l.09.006a.656.656 0 01-.282-.063l-.015-.008a.611.611 0 01-.073-.042l-.003-.003a4.258 4.258 0 00-5.185.277 1.088 1.088 0 01-.751.846 4.262 4.262 0 00-.636 3.343.659.659 0 01-.641.804.657.657 0 01-.64-.515 5.586 5.586 0 01-.117-1.724 2.67 2.67 0 00-1.278.904 2.713 2.713 0 00-.421 2.54 5.232 5.232 0 011.414-.94.656.656 0 01.868.332.66.66 0 01-.332.87 3.9 3.9 0 00-1.476 1.164 3.883 3.883 0 00-.79 2.878 3.877 3.877 0 001.47 2.596c.946.739 2.316.902 3.188.741a.657.657 0 01.765.53c.066.357-.17.7-.527.766a4.964 4.964 0 01-1.18.07 2.654 2.654 0 00-.312 1.945.61.61 0 01.08.275c.165.509.481.96.91 1.292a.66.66 0 01-.403 1.178.653.653 0 01-.403-.14 4.06 4.06 0 01-1.079-1.272 3.177 3.177 0 01-1.45.346 3.194 3.194 0 01-3.179-2.813 3.198 3.198 0 01-.012-.702 3.213 3.213 0 01-.726-4.055 3.19 3.19 0 011.49-1.355l.023-.008c.02-.903.275-1.786.74-2.56a4.036 4.036 0 01.306-4.487 3.987 3.987 0 012.631-1.515c.12-.331.272-.653.455-.959l.08.102c-4.49-5.695-6.864-12.552-6.864-19.828C17.862 32.353 32.175 18 49.768 18zM78.96 86.303c.174.015.334.1.446.233l1.283 1.538a.66.66 0 01-.503 1.082.654.654 0 01-.503-.236l-1.284-1.538a.66.66 0 01.561-1.079zM22.2 83.211l-.144.066a1.891 1.891 0 00-1.014 1.922c.06.5.318.953.715 1.262.64.5 1.522.524 2.184.1a3.979 3.979 0 01.274-2.237 4.962 4.962 0 01-2.014-1.113zm10.938-.784a.66.66 0 01.418 1.142 4.23 4.23 0 01-3.645 1.044.658.658 0 01.244-1.295c.901.17 1.84-.097 2.511-.717a.656.656 0 01.472-.174zm-7.532-7.492c.173.023.33.114.435.253.222.292.482.554.77.78a4.227 4.227 0 003.158.867.658.658 0 01.166 1.307 5.638 5.638 0 01-1.235.021l.181-.133a2.924 2.924 0 00-.169 4.724.66.66 0 01-.404 1.178.652.652 0 01-.403-.138 4.246 4.246 0 01-.737-5.94l.039-.046a5.592 5.592 0 01-1.402-.801 5.592 5.592 0 01-1.008-1.02.66.66 0 01.609-1.052zm-4.931 5.722l-.091.069a1.886 1.886 0 00-.44.528 1.9 1.9 0 00.067 1.993 3.207 3.207 0 011.12-1.073 5.18 5.18 0 01-.656-1.517zm47.422-10.493a3.172 3.172 0 011.632.954 3.209 3.209 0 01-.45 4.73 3.277 3.277 0 01.43 2.999 3.266 3.266 0 01-1.674 1.877 3.269 3.269 0 01-3.078-.122.66.66 0 01.163-1.206.656.656 0 01.498.068 1.963 1.963 0 001.847.074 1.977 1.977 0 00.919-2.634 1.977 1.977 0 00-2.084-1.093l-.38.062-3.23-4.088a.66.66 0 01.59-1.064c.174.02.332.109.44.245l2.77 3.506a3.29 3.29 0 011.824.48.583.583 0 01.133-.127 1.886 1.886 0 00.313-2.817 1.865 1.865 0 00-.958-.56.659.659 0 01.295-1.284zm-18.213-1.396c-.499 0-.89.157-1.387.356-.685.274-1.536.615-2.908.615-.683 0-1.22-.215-1.606-.452l-.032.058c-.99 1.77-3.312 5.916-4.153 8.749a.384.384 0 01.083.021 29.578 29.578 0 009.887 1.69c3.83 0 7.558-.72 11.079-2.14.086-.035.175-.058.265-.07-1.268-3.161-4.093-6.952-5.222-8.467a2.953 2.953 0 01-1.787.611c-1.396 0-2.256-.35-2.947-.63-.467-.19-.836-.341-1.272-.341zM80.96 76.99l1.635 1.155a.66.66 0 01-.379 1.197.652.652 0 01-.377-.12l-1.635-1.155a.66.66 0 01.265-1.188c.172-.03.349.01.491.11zm-61.294-.658a.66.66 0 01.174 1.205l-1.719 1.025a.656.656 0 01-.9-.23.66.66 0 01.229-.903l1.718-1.025a.656.656 0 01.498-.072zm18.44-4.216a.66.66 0 01.192.911l-2.42 3.723a.656.656 0 11-1.1-.719l2.42-3.723a.656.656 0 01.909-.192zm18.48 1.988a.66.66 0 01-.5 1.084.654.654 0 01-.503-.234c-1.834-2.177-5.216-2.337-5.74-2.341h-.089c-.52.009-3.906.163-5.74 2.341a.655.655 0 01-.926.078.66.66 0 01-.079-.928c2.226-2.641 6.076-2.8 6.737-2.807h.011c.181-.003 4.44-.028 6.83 2.807zM38.22 67.45a.66.66 0 01.408 1.146l-5.64 5.121a.654.654 0 01-.928-.046.66.66 0 01.046-.93l5.64-5.121a.656.656 0 01.474-.17zm20.452-1.593c.173.021.33.11.438.248l2.236 2.864a.66.66 0 01-.517 1.064.656.656 0 01-.518-.252l-2.236-2.864a.66.66 0 01.597-1.06zm-8.902-.544c-.795 0-1.684.243-2.496.555a16.47 16.47 0 00-2.382 1.165 4.155 4.155 0 01-.297 1.081c.211.149.546.307.995.307 1.119 0 1.78-.265 2.42-.522.553-.22 1.123-.45 1.875-.45.692 0 1.238.223 1.766.437.646.263 1.314.535 2.453.535.48 0 .836-.215 1.056-.402a3.992 3.992 0 01-.433-1.333 19.64 19.64 0 00-2.29-.886 1.523 1.523 0 01-.077-.014.659.659 0 01-.179-.062c-.723-.213-1.495-.378-2.2-.407l-.211-.004zm0-45.118c-16.387 0-29.718 13.368-29.718 29.798 0 6.615 2.105 12.856 6.094 18.082a5.582 5.582 0 014.319-.98c1.768-5.029 1.13-9.508.48-12-.136.487-.3.94-.483 1.363.407 2.06.415 6.137-.833 9.315a.657.657 0 01-.512.41l-.1.008a.659.659 0 01-.61-.9c.873-2.225 1.08-4.921.964-6.916a10.08 10.08 0 01-.667.835c-.007 1.05-.126 2.53-.599 4.043a.658.658 0 11-1.253-.395c.256-.818.396-1.63.47-2.355-.672.52-1.17.769-1.23.798a.652.652 0 01-.877-.306.66.66 0 01.304-.88c.076-.037.998-.504 1.992-1.547a.599.599 0 01.126-.138 8.96 8.96 0 001.517-2.27 9.636 9.636 0 00.818-2.861c.358-2.76.045-4.961-.312-6.39-.13.352-.271.694-.422 1.026-.082.18-.168.356-.256.528l-.048-.238c1.19 5.552-1.797 10.045-3.732 10.897a.66.66 0 01-.528-1.206c.973-.429 3.422-3.415 3.206-7.682a13.92 13.92 0 01-1.194 1.4l.005-.27c0 2.58-1.022 4.588-1.897 5.524a.654.654 0 01-.929.03.66.66 0 01-.03-.931c.562-.6 1.126-1.696 1.39-3.044-.675.522-1.155.791-1.206.82a.66.66 0 01-.634-1.153c.03-.017 3.075-1.744 4.658-5.222.379-.832.69-1.735.931-2.698a.572.572 0 01.033-.142c.1-.401.185-.814.258-1.237a8.399 8.399 0 01-.635-.107 17.115 17.115 0 01-1.058 3.128c-1.012 2.222-2.54 3.786-3.644 4.706a.654.654 0 01-.925-.085.66.66 0 01.085-.928c.999-.832 2.38-2.244 3.289-4.24.415-.912.752-1.918 1.003-2.999a3.155 3.155 0 01-.62-.408 16.477 16.477 0 01-.855 2.35 12.818 12.818 0 01-1.749 2.795.655.655 0 01-.924.092.66.66 0 01-.092-.927 11.475 11.475 0 001.57-2.507c.432-.948.779-2 1.033-3.13-.296-.668-.389-1.446-.274-2.313.202-1.526 1.143-3.357 1.865-3.628a.72.72 0 01.74.127c.414.365.25.88.092 1.379a7.876 7.876 0 00-.125.426c.887-1.023 2.028-2.518 2.975-4.334-.337-.041-.534-.07-.563-.075a.658.658 0 01.195-1.303c.106.017 10.643 1.551 16.067-2.19 2.623-1.808 2.483-5.43 2.481-5.466a.658.658 0 01.58-.686l.03-.002.015-.002h.072l.014.002.012.001.021.003-.047-.006a.658.658 0 01.625.689c-.002.058-.119 3.675 2.481 5.468 5.43 3.744 15.96 2.206 16.067 2.19a.656.656 0 01.747.553.658.658 0 01-.551.75c-.03.004-.226.033-.561.073.918 1.768 2.023 3.23 2.9 4.251l-.077-.256c-.16-.518-.36-1.164.191-1.523.324-.211.848-.262 1.5.694.454.667.978 1.821 1.084 3.057.067.794-.043 1.51-.323 2.131l-.03-.122a16.19 16.19 0 001.058 3.241c.4.88.929 1.724 1.57 2.508a.66.66 0 01-.508 1.076.655.655 0 01-.508-.24 12.814 12.814 0 01-1.749-2.796 16.669 16.669 0 01-.856-2.35 3.155 3.155 0 01-.618.407 15.954 15.954 0 001.003 3c.909 1.996 2.29 3.408 3.289 4.24a.66.66 0 01-.42 1.165.652.652 0 01-.42-.152c-1.104-.92-2.632-2.483-3.644-4.706a17.237 17.237 0 01-1.06-3.128 7.89 7.89 0 01-.632.106c.071.423.156.837.254 1.24.02.045.031.094.037.143.24.962.55 1.864.929 2.695 1.591 3.495 4.628 5.205 4.658 5.221a.66.66 0 01-.318 1.236.651.651 0 01-.316-.082c-.051-.029-.53-.298-1.204-.82.262 1.349.827 2.444 1.388 3.044a.66.66 0 01-.479 1.11.654.654 0 01-.479-.21c-.844-.902-1.825-2.803-1.893-5.253a13.826 13.826 0 01-1.192-1.4c-.217 4.268 2.231 7.253 3.204 7.682a.66.66 0 01-.528 1.206c-1.907-.84-4.836-5.217-3.78-10.659a12.396 12.396 0 01-.256-.528 15.838 15.838 0 01-.424-1.025c-.355 1.426-.668 3.628-.31 6.39.63 4.878 4.298 6.74 4.454 6.817a.66.66 0 01-.29 1.25.65.65 0 01-.285-.066l-.077-.04a8.001 8.001 0 01-1.067-.692c.073.699.212 1.491.462 2.29a.659.659 0 01-.627.855.657.657 0 01-.627-.461c-.469-1.5-.585-2.967-.598-3.96a9.923 9.923 0 01-.667-.809c-.094 1.852.074 4.373.868 6.554a.659.659 0 01-.617.885.658.658 0 01-.617-.433c-1.091-2.995-1.152-6.712-.747-8.913a10.287 10.287 0 01-.496-1.334c-.605 2.401-1.16 6.515.281 11.151a5.45 5.45 0 014.666 1.19c3.75-5.126 5.729-11.195 5.729-17.59 0-16.431-13.332-29.8-29.718-29.8zm-17.852 46.7l-.01.036c-.06.186-.121.373-.187.56.165.075.328.158.488.25l.364-.239a18.3 18.3 0 01-.655-.606zm.74-3.085l-.043.254a21.67 21.67 0 01-.286 1.368c.249.271.714.748 1.385 1.319l1.548-1.017a20.496 20.496 0 01-2.605-1.924zm34.476-.002l-.01.01a20.577 20.577 0 01-2.413 1.8l1.588.92c.569-.487.952-.876 1.166-1.108a20.586 20.586 0 01-.33-1.622zM32.94 60.316v.139c-.003.56-.028 1.14-.08 1.74.437.445 1.63 1.562 3.6 2.729l1.711-1.236a21.403 21.403 0 01-5.23-3.372zm33.911 0l-.01.01a21.425 21.425 0 01-5.331 3.413 7.104 7.104 0 011.553.923l.358.207c1.93-1.155 3.086-2.241 3.513-2.676a21.267 21.267 0 01-.083-1.878zm-11.24-4.922l-.012.033c-.39.9-1.36 1.344-2.114 1.509-.266.605-.85 1.343-1.888 1.748.174.447.363 1.08.457 1.863.52-.117 1.056-.201 1.536-.205 2.723-.017 3.37.128 6.215 2.18l.446.323a20.23 20.23 0 002.241-1.072c-1.741-4.117-5.447-5.846-6.881-6.379zm-11.496.032l-.08.031c-1.531.609-5.062 2.385-6.763 6.3.65.364 1.365.716 2.14 1.035l.375-.27c2.844-2.053 3.489-2.2 6.215-2.18.479.004 1.009.088 1.523.206a6.75 6.75 0 01.54-1.886c-1.005-.408-1.574-1.13-1.835-1.726-.755-.165-1.724-.609-2.115-1.51zm5.265 3.542a5.412 5.412 0 00-.576 1.94c.408.136.75.266.967.353.223-.087.576-.219.998-.355a6.33 6.33 0 00-.475-1.937 4.634 4.634 0 01-.433.019h-.008l-.249-.006a5.486 5.486 0 01-.224-.014zm18.34-15.605c-.283 2.225-.67 3.494-1.236 4.078-2.11 2.173-4.32 3.301-6.393 3.301a5.544 5.544 0 01-2.008-.374c-2.527-.974-3.95-2.452-4.607-3.308a4.66 4.66 0 01-.426.285l.536 4.7c.85.206 1.906.777 2.14 1.99 1.319.435 5.778 2.217 7.904 7.055 1.81-1.166 2.945-2.299 3.304-2.68.292-3.387 1.276-5.652 1.4-5.925-.34-4.167.705-6.963 1.06-7.773-.102-.426-.19-.864-.264-1.312-.456.007-.93-.007-1.41-.037zm-35.751.002l-.042.003c-.457.027-.91.039-1.347.032-.073.448-.16.886-.26 1.313.349.8 1.378 3.55 1.068 7.65a.644.644 0 01.059.103c.076.165 1.11 2.462 1.411 5.948l.035.037c.395.413 1.507 1.502 3.242 2.624 2.108-4.691 6.443-6.523 7.849-7.009.22-1.235 1.287-1.813 2.143-2.02l.535-4.696a4.905 4.905 0 01-.43-.287c-.657.856-2.079 2.33-4.604 3.304a5.53 5.53 0 01-2.007.374c-2.074 0-4.283-1.127-6.393-3.301-.214-.22-.84-.866-1.259-4.075zm17.915 4.774h-.055c-.73 0-1.36-.094-1.906-.25l-.61 5.344-.544.038c-.153.013-1.524.156-1.515 1.287.006.986 1.512 1.133 1.527 1.134l.485.044.1.477c.033.142.406 1.457 2.49 1.458 2.085 0 2.457-1.316 2.493-1.466l.11-.462.473-.051c.06-.006 1.52-.16 1.527-1.134.008-1.165-1.453-1.282-1.516-1.287l-.544-.038-.609-5.348a6.85 6.85 0 01-1.906.254zm10.87-6.055l.038.045c.39.488.625 1.108.625 1.783a2.846 2.846 0 01-2.842 2.85 2.845 2.845 0 01-2.802-2.37c-.154.097-.35.204-.582.3a4.609 4.609 0 01-.764 1.44c.488.667 1.75 2.09 4.128 3.007 1.208.466 3.723.745 6.987-2.617.16-.166.548-.81.868-3.276a35.476 35.476 0 01-5.657-1.162zm-21.797 0c-1.182.358-3.404.9-5.678 1.163.265 1.998.626 3 .89 3.274 3.264 3.362 5.78 3.083 6.988 2.617 2.405-.927 3.654-2.347 4.134-3.01l.096.125a4.91 4.91 0 01-.858-1.558 3.709 3.709 0 01-.59-.305 2.842 2.842 0 01-2.801 2.371 2.846 2.846 0 01-2.842-2.85c0-.695.248-1.333.661-1.827zm10.898 1.23l-.013.022c-.59.822-1.54 1.353-2.845 1.586a5.11 5.11 0 01-.874.08L46.106 45a3.534 3.534 0 00.481.625c.6.623 1.6 1.197 3.242 1.197h.055c.9 0 1.606-.169 2.16-.422a3.525 3.525 0 001.017-.692.614.614 0 01.154-.163c.167-.183.3-.37.404-.546l-.03.002a4.92 4.92 0 01-.874-.08c-1.316-.234-2.271-.772-2.86-1.607zm-8.717-.713a1.308 1.308 0 00-.925 2.236 1.308 1.308 0 001.85 0 1.308 1.308 0 000-1.852 1.308 1.308 0 00-.925-.384zm17.436 0a1.308 1.308 0 00-1.306 1.31 1.308 1.308 0 002.23.925 1.308 1.308 0 00-.924-2.235zm-1.854-6.497c-2.016 0-3.623.483-4.714 1.428a4.455 4.455 0 00-1.485 2.626c.028.21.04.411.04.6 0 .258-.014.504-.043.74.195 1.227.939 1.861 2.427 2.127 1.222.217 1.972-.222 2.236-.42.267-.82.751-1.877 1.84-2.427 1-.505 2.345-.49 4.109.044 1.878.569 4.047 1 5.982 1.176a.558.558 0 01.152.008l.03.008a17.166 17.166 0 002.307.05.656.656 0 01.108-.006c.58-.036 1.095-.115 1.517-.242a.602.602 0 01.215-.088l.062-.007a2.22 2.22 0 00.481-.255c.671-.483 1.014-1.18 1.02-2.073a4.415 4.415 0 00-.137-1.078 1.384 1.384 0 01-.154.241c-.377.478-1.021.677-1.97.611a19.796 19.796 0 01-1.123-.11l.096.007a.653.653 0 01-.11-.01 23.167 23.167 0 01-3.239-.666 57.4 57.4 0 01-2.81-.875c-1.573-.518-3.058-1.008-4.601-1.235a15.41 15.41 0 00-2.236-.174zm-15.964.174c-1.431.21-2.812.647-4.26 1.123l-.01.003-.331.11a58.626 58.626 0 01-2.837.881 23.313 23.313 0 01-3.23.662 20.51 20.51 0 01-1.119.11c-.963.067-1.619-.138-2.004-.628a1.466 1.466 0 01-.1-.145c-.087.361-.14.744-.13 1.127.024.845.348 1.48.993 1.944.136.098.31.185.521.261a.62.62 0 01.186.06c.885.267 2.28.36 3.987.23a.663.663 0 01.158-.013c1.753-.144 3.822-.521 6.002-1.181 1.765-.534 3.109-.549 4.11-.044 1.088.55 1.572 1.607 1.838 2.427.129.096.371.248.726.356l.001-.001c.376.115.88.177 1.51.065 1.488-.266 2.232-.9 2.428-2.128a5.945 5.945 0 01-.044-.74c0-.188.013-.39.04-.6a4.45 4.45 0 00-1.485-2.625c-1.468-1.272-3.872-1.706-6.95-1.254zm9.1-9.114l-.036.089c-.444 1.06-1.172 2.154-2.361 2.974-1.242.857-2.774 1.515-4.582 1.974-.64 1.12-1.485 2.042-2.35 2.782l.039-.008c3.517-.517 6.208.009 7.999 1.56.56.486.983 1.04 1.292 1.605a5.736 5.736 0 011.29-1.604c1.79-1.552 4.482-2.078 7.999-1.561l.041.008c-.865-.74-1.71-1.661-2.351-2.782-1.809-.459-3.34-1.117-4.582-1.974-1.223-.843-1.958-1.974-2.399-3.063zm17.438 5.682l-.209.016c-.417.031-.883.06-1.387.08 1.605 2.6 3.724 4.387 4.276 4.83.21.025.425.047.643.065-1.003-1.17-2.298-2.895-3.323-4.99zm-34.876 0l-.156.312c-.997 1.955-2.213 3.566-3.168 4.677l-.216.018c.293-.02.58-.048.864-.081.55-.446 2.672-2.239 4.274-4.828-.592-.026-1.13-.06-1.598-.098zm30.017.103l.097.136c1.681 2.307 3.85 3.778 4.284 4.059.23.063.464.123.702.18-1.027-1.031-2.308-2.518-3.326-4.346l-.225.001a39.068 39.068 0 01-1.532-.03zm-25.156 0l-.089.004a38.323 38.323 0 01-1.444.026h-.225c-1.018 1.826-2.299 3.313-3.327 4.345.24-.058.474-.118.705-.181.444-.29 2.69-1.818 4.38-4.194zm21.403-.366l.066.082c1.587 1.946 3.821 3.032 4.625 3.378-.878-.853-1.812-1.929-2.58-3.198a27.718 27.718 0 01-2.11-.262zm-17.651 0l-.163.026c-.623.099-1.272.178-1.948.237-.767 1.268-1.702 2.343-2.577 3.196.815-.354 3.1-1.469 4.688-3.46zm7.43-9.548c.355.078.58.43.502.784-.19.87-.858 3.045-2.953 4.49-1.884 1.3-5.385 2.756-11.611 2.756-.705 0-1.445-.019-2.22-.058a.658.658 0 01.066-1.316c3.283.168 9.34.07 13.02-2.467 1.71-1.179 2.258-2.97 2.414-3.686a.657.657 0 01.782-.503zm3.572.503c.156.715.704 2.507 2.414 3.686 3.68 2.538 9.736 2.635 13.02 2.467a.658.658 0 11.067 1.316c-.776.04-1.516.058-2.22.058-6.227 0-9.728-1.456-11.611-2.755-2.096-1.445-2.763-3.622-2.953-4.49a.658.658 0 011.283-.282zm1.784-.269c.168.047.31.158.397.31.34.6.938 1.214 1.684 1.728 2.114 1.459 5.228 2.293 9.257 2.482a.658.658 0 01-.03 1.316h-.031c-4.277-.2-7.621-1.113-9.94-2.712-.906-.625-1.646-1.393-2.083-2.163a.66.66 0 01.746-.96z" fill="#FFF" fill-rule="nonzero"/><mask id="b" fill="#fff"><use xlink:href="#a"/></mask><g mask="url(#b)"><path d="M0 0h100v100H0z"/><g><animateTransform attributeName="transform" type="rotate" from="0 50 50" to="360 50 50" begin="0s" dur="20s" repeatCount="indefinite"/><path d="M8.704 70.878a1.293 1.293 0 01-1.685-.752 1.298 1.298 0 01.75-1.69l3.26-1.253-1.723-4.505-3.26 1.253a1.293 1.293 0 01-1.684-.753 1.3 1.3 0 01.75-1.69l8.828-3.395a1.294 1.294 0 011.685.753 1.3 1.3 0 01-.751 1.69l-3.322 1.278 1.723 4.505 3.322-1.278c.68-.261 1.424.07 1.685.753a1.3 1.3 0 01-.75 1.69l-8.828 3.394zm-.44-18.175L8.23 52.7c-3.362-.261-5.909-3.135-5.625-6.794.283-3.658 3.206-6.072 6.568-5.81l.034.003c3.361.262 5.908 3.136 5.625 6.794-.284 3.659-3.207 6.072-6.569 5.81m.766-9.874l-.034-.003c-2.027-.158-3.831 1.201-3.994 3.302-.163 2.1 1.38 3.686 3.406 3.844l.034.003c2.027.158 3.832-1.201 3.995-3.302.162-2.1-1.38-3.686-3.407-3.844m2.275-9.178l-.03-.018c-2.884-1.75-3.87-5.464-1.977-8.604 1.893-3.14 5.586-3.977 8.47-2.228l.03.018c2.885 1.749 3.871 5.464 1.977 8.604-1.893 3.14-5.586 3.977-8.47 2.228m5.11-8.475l-.029-.017c-1.74-1.055-3.96-.655-5.047 1.147-1.087 1.802-.42 3.913 1.319 4.968l.029.018c1.74 1.054 3.96.654 5.047-1.148 1.087-1.802.42-3.913-1.319-4.968m3.92-11.224a1.3 1.3 0 01.35-1.816 1.292 1.292 0 011.811.35l2.231 3.308 1.31-6.672c.086-.448.248-.784.627-1.04.603-.41 1.31-.212 1.67.323.228.338.245.696.158 1.083l-1.019 4.464 5.58 1.754c.311.097.59.236.807.56.408.605.25 1.37-.382 1.798-.421.285-.817.245-1.264.098l-5.294-1.784-.456 1.991 1.329 1.97a1.3 1.3 0 01-.35 1.817 1.292 1.292 0 01-1.812-.35l-5.296-7.854zm19.7-9.815c.168-.687.615-1.165 1.315-1.292l.15-.028c.7-.127 1.27.167 1.669.75l5.733 8.471c.117.169.197.327.228.494a1.24 1.24 0 01-.994 1.459c-.6.109-1.064-.17-1.394-.662l-1.116-1.696-5.134.933-.47 2.071c-.126.541-.505.921-1.038 1.018a1.201 1.201 0 01-1.401-.988c-.034-.184 0-.38.05-.58l2.402-9.95zm4.23 5.396l-2.316-3.568-.919 4.156 3.235-.588zm11.981-5.917a1.294 1.294 0 011.582-.952c.707.177 1.126.877.95 1.586l-.845 3.395L62.6 8.813l.845-3.395a1.295 1.295 0 011.582-.952c.706.177 1.125.877.949 1.586l-2.29 9.197a1.294 1.294 0 01-1.58.952 1.298 1.298 0 01-.95-1.586l.861-3.461-4.668-1.169-.861 3.462a1.295 1.295 0 01-1.582.952 1.299 1.299 0 01-.95-1.586l2.29-9.197zm27.018 15.902l-1.625-1.915a1.213 1.213 0 01.137-1.7 1.205 1.205 0 011.696.137l4.94 5.823a1.213 1.213 0 01-.137 1.7 1.205 1.205 0 01-1.696-.137l-1.625-1.915-6.285 5.361a1.292 1.292 0 01-1.839-.149 1.3 1.3 0 01.149-1.844l6.285-5.36zm8.624 11.009a1.293 1.293 0 011.709.698 1.3 1.3 0 01-.697 1.713l-8.713 3.679a1.294 1.294 0 01-1.708-.698 1.3 1.3 0 01.696-1.713l8.713-3.68zm3.773 11.182a1.296 1.296 0 011.36 1.251l.012.289c.024.56-.248.963-.627 1.217l-4.994 3.378 5.282 2.953c.452.252.687.617.71 1.143l.012.288c.031.73-.52 1.332-1.247 1.363l-9.412.404a1.295 1.295 0 01-1.36-1.25 1.304 1.304 0 011.249-1.347l5.908-.253-3.62-2.14c-.417-.255-.686-.583-.706-1.059-.02-.475.22-.825.614-1.114l3.374-2.407-5.891.253a1.274 1.274 0 01-1.325-1.236 1.26 1.26 0 011.215-1.327l9.446-.406zM85.555 59.533l8.572 3.488a1.3 1.3 0 01.718 1.704l-2.472 6.108a1.17 1.17 0 01-1.523.645 1.161 1.161 0 01-.628-1.52l1.988-4.912-2.23-.907-1.7 4.203a1.17 1.17 0 01-1.523.645 1.161 1.161 0 01-.628-1.52l1.701-4.203-2.308-.94-2.02 4.99a1.17 1.17 0 01-1.522.646 1.16 1.16 0 01-.628-1.52l2.504-6.187a1.293 1.293 0 011.7-.72M38.682 91.725a.5.5 0 01.599-.384l.108.023c.21.046.334.188.39.354l.765 2.2 1.617-1.684a.492.492 0 01.495-.153l.108.024a.5.5 0 01.384.6l-.776 3.557a.5.5 0 11-.976-.214l.487-2.233-1.152 1.142c-.135.131-.284.2-.463.16-.178-.04-.285-.163-.353-.339l-.563-1.498-.486 2.227a.49.49 0 01-.59.373.486.486 0 01-.373-.585l.78-3.57zm5.87 1.184a.5.5 0 01.54-.464l.11.008a.516.516 0 01.436.296l1.06 2.072 1.37-1.892a.492.492 0 01.469-.22l.11.008a.5.5 0 01.464.542l-.277 3.631a.5.5 0 11-.997-.077l.174-2.279-.983 1.291c-.116.15-.254.237-.436.223-.183-.014-.306-.122-.398-.287l-.764-1.405-.173 2.273a.491.491 0 01-.533.452.486.486 0 01-.45-.528l.278-3.644zm6.046 3.632l1.16-1.578-1.23-1.362a.616.616 0 01-.169-.366.485.485 0 01.471-.521c.216-.01.344.068.476.226l1.063 1.285.928-1.356c.128-.184.254-.288.476-.3a.46.46 0 01.479.443.6.6 0 01-.131.393l-1.092 1.483 1.3 1.451a.618.618 0 01.167.365.485.485 0 01-.471.522c-.215.01-.344-.069-.475-.226l-1.138-1.354-.99 1.432c-.128.183-.254.287-.476.298a.46.46 0 01-.48-.442.602.602 0 01.132-.393m4.982-3.677a.5.5 0 01.43-.567.5.5 0 01.567.43l.495 3.622a.5.5 0 01-.43.568.5.5 0 01-.566-.431l-.496-3.622zm4.541 3.07L57.884 92.8a.627.627 0 01-.112-.223.495.495 0 01.38-.598.523.523 0 01.575.23l1.776 2.635.457-3.182a.522.522 0 01.4-.422.485.485 0 01.59.59l-.656 3.834c-.047.266-.198.455-.465.517l-.064.014c-.267.062-.486-.042-.643-.261" fill="#FFF" fill-rule="nonzero"/></g></g></g></svg>