<svg width="42" height="23" xmlns="http://www.w3.org/2000/svg"><defs><linearGradient x1="100%" y1="50%" x2=".971%" y2="50%" id="a"><stop stop-color="#FFF" offset="0%"/><stop stop-color="#DBDBDB" offset="100%"/></linearGradient></defs><g transform="translate(-1.111 -1.103)" fill="url(#a)" fill-rule="evenodd"><path d="M20.351 20.032 38.685 1.819a2.25 2.25 0 0 1 3.17 0 2.22 2.22 0 0 1 0 3.15L23.523 23.18a2.25 2.25 0 0 1-3.17 0 2.22 2.22 0 0 1 0-3.15z"/><path d="m5.178 1.84 18.334 18.214a2.22 2.22 0 0 1 0 3.15 2.25 2.25 0 0 1-3.17 0L2.006 4.99a2.22 2.22 0 0 1 0-3.15 2.25 2.25 0 0 1 3.171 0z"/></g></svg>