<svg width="30" height="30" xmlns="http://www.w3.org/2000/svg"><g fill="none"><circle fill="#D31861" cx="15" cy="15" r="15"/><path d="M14.998 7.505c-2.037 0-2.292.008-3.092.045-.798.036-1.343.163-1.82.35a3.674 3.674 0 0 0-1.328.866 3.684 3.684 0 0 0-.864 1.331c-.186.478-.312 1.024-.349 1.824-.036.802-.045 1.058-.045 3.098 0 2.041.009 2.297.045 3.099.037.8.163 1.346.349 1.824.191.494.448.913.864 1.33.417.419.835.676 1.328.868.477.185 1.022.312 1.82.349.8.036 1.055.045 3.092.045 2.036 0 2.291-.009 3.09-.045.799-.037 1.344-.164 1.82-.35a3.675 3.675 0 0 0 1.329-.866c.417-.418.673-.837.865-1.331.185-.478.312-1.024.348-1.824.037-.802.045-1.058.045-3.099 0-2.04-.008-2.296-.045-3.098-.036-.8-.163-1.346-.348-1.824a3.685 3.685 0 0 0-.865-1.331 3.674 3.674 0 0 0-1.328-.867c-.477-.186-1.022-.313-1.82-.349-.8-.037-1.055-.045-3.091-.045zm0 1.427c1.978 0 2.212.007 2.993.043.723.033 1.115.154 1.376.256.346.134.593.295.852.555.26.26.42.507.554.854.102.262.222.655.255 1.379.036.783.044 1.018.044 3 0 1.983-.008 2.218-.044 3.001-.033.724-.153 1.117-.255 1.379a2.3 2.3 0 0 1-.554.854 2.3 2.3 0 0 1-.852.555c-.26.102-.653.223-1.376.256-.78.036-1.015.043-2.993.043-1.979 0-2.213-.007-2.994-.043-.723-.033-1.115-.154-1.376-.256a2.295 2.295 0 0 1-.852-.555 2.306 2.306 0 0 1-.554-.854c-.101-.262-.222-.655-.255-1.379-.036-.783-.043-1.018-.043-3 0-1.983.007-2.218.043-3.001.033-.724.154-1.117.255-1.379a2.3 2.3 0 0 1 .554-.854 2.3 2.3 0 0 1 .852-.555c.261-.102.653-.223 1.376-.256.781-.036 1.015-.043 2.994-.043z" fill="#FFF"/><path d="M15 17.25a2.25 2.25 0 1 1 0-4.5 2.25 2.25 0 0 1 0 4.5zm0-6a3.75 3.75 0 1 0 0 7.5 3.75 3.75 0 0 0 0-7.5zm3.75.75a.75.75 0 1 1 0-1.5.75.75 0 0 1 0 1.5z" fill="#FFF"/></g></svg>