<svg height="30" width="30" xmlns="http://www.w3.org/2000/svg"><g fill="none"><circle cx="15" cy="15" fill="#4c6c91" r="15"/><path d="M15.736 19.963s.27-.03.409-.183c.127-.14.123-.402.123-.402s-.018-1.23.54-1.411c.551-.179 1.258 1.188 2.007 1.714.567.398.997.31.997.31l2.003-.028s1.048-.066.551-.908c-.04-.069-.29-.623-1.49-1.762-1.255-1.192-1.087-1 .426-3.062.922-1.255 1.29-2.022 1.175-2.35-.11-.313-.788-.23-.788-.23l-2.255.014s-.167-.023-.291.052c-.122.075-.2.248-.2.248s-.357.972-.832 1.798c-1.005 1.744-1.406 1.836-1.57 1.728-.382-.253-.287-1.014-.287-1.555 0-1.69.25-2.395-.488-2.577-.245-.06-.426-.1-1.053-.107-.805-.008-1.486.002-1.871.196-.257.128-.455.414-.334.43.149.021.486.094.665.343.231.322.223 1.044.223 1.044s.133 1.989-.31 2.236c-.304.17-.72-.177-1.616-1.759-.459-.81-.805-1.706-.805-1.706s-.067-.167-.186-.257c-.145-.108-.347-.143-.347-.143l-2.143.015s-.322.009-.44.152c-.105.127-.008.39-.008.39s1.678 4.014 3.578 6.037c1.742 1.855 3.72 1.733 3.72 1.733z" fill="#fff"/></g></svg>